<svg width="540" height="444" viewBox="0 0 540 444" fill="none" xmlns="http://www.w3.org/2000/svg">
<g filter="url(#filter0_di_1_3474)">
<g clip-path="url(#clip0_1_3474)">
<path d="M230 270C230 247.909 247.909 230 270 230C292.091 230 310 247.909 310 270C310 292.091 292.091 310 270 310C247.909 310 230 292.091 230 270Z" fill="#5547EB" shape-rendering="crispEdges"/>
<mask id="mask0_1_3474" style="mask-type:alpha" maskUnits="userSpaceOnUse" x="22" y="47" width="420" height="353">
<rect x="441.25" y="400" width="418.75" height="352.5" transform="rotate(180 441.25 400)" fill="url(#paint0_radial_1_3474)"/>
</mask>
<g mask="url(#mask0_1_3474)">
</g>
<g clip-path="url(#clip1_1_3474)">
<g opacity="0.7">
<path opacity="0.11" d="M296.66 261.133C296.399 261.303 296.324 261.653 296.494 261.915C296.664 262.176 297.013 262.251 297.274 262.081C297.536 261.911 297.61 261.561 297.441 261.3C297.271 261.038 296.922 260.963 296.66 261.133Z" fill="white"/>
<path d="M293.435 259.527C293.239 259.654 293.183 259.916 293.31 260.113C293.437 260.309 293.699 260.365 293.895 260.237C294.091 260.11 294.147 259.848 294.02 259.652C293.893 259.455 293.631 259.4 293.435 259.527Z" fill="white"/>
<path d="M288.851 269.571C288.655 269.698 288.599 269.96 288.727 270.157C288.854 270.353 289.116 270.409 289.312 270.281C289.508 270.154 289.564 269.892 289.436 269.696C289.309 269.499 289.047 269.443 288.851 269.571Z" fill="white"/>
<path d="M309.268 256.982C309.072 257.11 309.016 257.372 309.143 257.568C309.271 257.764 309.533 257.82 309.729 257.693C309.925 257.566 309.98 257.303 309.853 257.107C309.726 256.911 309.464 256.855 309.268 256.982Z" fill="white"/>
<path d="M291.385 251.436C291.254 251.521 291.217 251.696 291.302 251.826C291.386 251.957 291.561 251.994 291.692 251.909C291.822 251.825 291.859 251.65 291.775 251.519C291.69 251.388 291.515 251.351 291.385 251.436Z" fill="white"/>
<path d="M239.81 284.938C239.68 285.022 239.642 285.197 239.727 285.328C239.812 285.459 239.987 285.496 240.117 285.411C240.248 285.326 240.285 285.151 240.2 285.021C240.115 284.89 239.941 284.853 239.81 284.938Z" fill="white"/>
<path opacity="0.11" d="M286.327 242.604C286.197 242.688 286.16 242.863 286.244 242.994C286.329 243.125 286.504 243.162 286.634 243.077C286.765 242.992 286.802 242.817 286.717 242.687C286.633 242.556 286.458 242.519 286.327 242.604Z" fill="white"/>
<path opacity="0.11" d="M242.445 274.479C242.314 274.563 242.277 274.738 242.362 274.869C242.446 275 242.621 275.037 242.751 274.952C242.882 274.867 242.919 274.692 242.834 274.562C242.75 274.431 242.575 274.394 242.445 274.479Z" fill="white"/>
<path d="M284.71 291.445C284.58 291.53 284.542 291.705 284.627 291.836C284.712 291.966 284.886 292.004 285.017 291.919C285.148 291.834 285.185 291.659 285.1 291.528C285.015 291.398 284.841 291.361 284.71 291.445Z" fill="white"/>
<path opacity="0.11" d="M257.792 304.894C257.662 304.978 257.625 305.153 257.709 305.284C257.794 305.415 257.969 305.452 258.099 305.367C258.23 305.282 258.267 305.107 258.182 304.977C258.097 304.846 257.923 304.809 257.792 304.894Z" fill="white"/>
<path opacity="0.3" d="M271.666 264.581C271.405 264.751 271.331 265.101 271.5 265.362C271.67 265.624 272.019 265.698 272.281 265.529C272.542 265.359 272.617 265.009 272.447 264.747C272.277 264.486 271.928 264.411 271.666 264.581Z" fill="white"/>
<path opacity="0.11" d="M262.314 280.753C262.053 280.923 261.978 281.273 262.148 281.534C262.318 281.796 262.667 281.87 262.929 281.701C263.19 281.531 263.264 281.181 263.095 280.919C262.925 280.658 262.576 280.583 262.314 280.753Z" fill="white"/>
<path d="M267.804 288.965C267.608 289.092 267.552 289.354 267.679 289.551C267.806 289.747 268.068 289.803 268.264 289.675C268.46 289.548 268.516 289.286 268.389 289.09C268.262 288.893 268 288.838 267.804 288.965Z" fill="white"/>
<path d="M268.007 253.496C267.811 253.623 267.755 253.885 267.882 254.081C268.009 254.278 268.271 254.333 268.467 254.206C268.663 254.079 268.719 253.817 268.592 253.62C268.465 253.424 268.203 253.368 268.007 253.496Z" fill="white"/>
<path d="M276.087 276.852C275.891 276.979 275.835 277.241 275.962 277.437C276.089 277.634 276.351 277.689 276.547 277.562C276.743 277.435 276.799 277.172 276.672 276.976C276.545 276.78 276.283 276.724 276.087 276.852Z" fill="white"/>
<path d="M305.89 232.588C305.694 232.715 305.638 232.978 305.765 233.174C305.893 233.37 306.155 233.426 306.351 233.298C306.547 233.171 306.602 232.909 306.475 232.713C306.348 232.516 306.086 232.461 305.89 232.588Z" fill="white"/>
<path d="M239.673 261.132C239.477 261.259 239.421 261.521 239.548 261.718C239.676 261.914 239.938 261.97 240.134 261.842C240.33 261.715 240.385 261.453 240.258 261.257C240.131 261.06 239.869 261.005 239.673 261.132Z" fill="white"/>
<path opacity="0.3" d="M248.131 301.408C247.87 301.578 247.795 301.927 247.965 302.189C248.135 302.451 248.484 302.525 248.746 302.355C249.007 302.186 249.081 301.836 248.912 301.574C248.742 301.312 248.393 301.238 248.131 301.408Z" fill="white"/>
<path d="M232.571 304.112C232.375 304.239 232.319 304.501 232.447 304.698C232.574 304.894 232.836 304.95 233.032 304.822C233.228 304.695 233.283 304.433 233.156 304.237C233.029 304.04 232.767 303.985 232.571 304.112Z" fill="white"/>
<path opacity="0.11" d="M237.387 260.37C237.257 260.455 237.22 260.629 237.304 260.76C237.389 260.891 237.564 260.928 237.694 260.843C237.825 260.758 237.862 260.583 237.777 260.453C237.693 260.322 237.518 260.285 237.387 260.37Z" fill="white"/>
<path opacity="0.11" d="M244.027 248.315C243.896 248.4 243.859 248.575 243.944 248.705C244.029 248.836 244.203 248.873 244.334 248.788C244.465 248.704 244.502 248.529 244.417 248.398C244.332 248.267 244.158 248.23 244.027 248.315Z" fill="white"/>
<path d="M239.245 239.642C239.049 239.769 238.993 240.031 239.121 240.227C239.248 240.424 239.51 240.479 239.706 240.352C239.902 240.225 239.957 239.963 239.83 239.766C239.703 239.57 239.441 239.514 239.245 239.642Z" fill="white"/>
<path opacity="0.3" d="M232.475 252.791C232.214 252.961 232.139 253.311 232.309 253.572C232.479 253.834 232.828 253.908 233.09 253.739C233.351 253.569 233.425 253.219 233.256 252.957C233.086 252.696 232.737 252.621 232.475 252.791Z" fill="white"/>
</g>
</g>
<path d="M252.5 277.5H257.5C260.25 277.5 262.5 275.25 262.5 272.5V267.5C262.5 264.75 260.25 262.5 257.5 262.5H252.5C249.75 262.5 247.5 264.75 247.5 267.5V272.5C247.5 275.25 249.75 277.5 252.5 277.5Z" fill="white"/>
<path d="M267.499 262.5H272.499C275.249 262.5 277.499 260.25 277.499 257.5V252.5C277.499 249.75 275.249 247.5 272.499 247.5H267.499C264.749 247.5 262.499 249.75 262.499 252.5V257.5C262.499 260.25 264.749 262.5 267.499 262.5Z" fill="white"/>
<path d="M287.5 277.5H282.5C279.75 277.5 277.5 275.25 277.5 272.5V267.5C277.5 264.75 279.75 262.5 282.5 262.5H287.5C290.25 262.5 292.5 264.75 292.5 267.5V272.5C292.5 275.25 290.25 277.5 287.5 277.5Z" fill="white"/>
<path d="M272.499 277.5H267.499C264.749 277.5 262.499 279.75 262.499 282.5V287.5C262.499 290.25 264.749 292.5 267.499 292.5H272.499C275.249 292.5 277.499 290.25 277.499 287.5V282.5C277.499 279.75 275.249 277.5 272.499 277.5Z" fill="white"/>
<path d="M257.5 262.5C260.25 262.5 262.5 260.25 262.5 257.5C262.5 260.25 264.75 262.5 267.5 262.5C264.75 262.5 262.5 264.75 262.5 267.5C262.5 264.75 260.25 262.5 257.5 262.5Z" fill="white"/>
<path d="M272.5 262.5C275.25 262.5 277.5 260.25 277.5 257.5C277.5 260.25 279.75 262.5 282.5 262.5C279.75 262.5 277.5 264.75 277.5 267.5C277.5 264.75 275.25 262.5 272.5 262.5Z" fill="white"/>
<path d="M257.5 277.5C260.25 277.5 262.5 275.25 262.5 272.5C262.5 275.25 264.75 277.5 267.5 277.5C264.75 277.5 262.5 279.75 262.5 282.5C262.5 279.75 260.25 277.5 257.5 277.5Z" fill="white"/>
<path d="M272.5 277.5C275.25 277.5 277.5 275.25 277.5 272.5C277.5 275.25 279.75 277.5 282.5 277.5C279.75 277.5 277.5 279.75 277.5 282.5C277.5 279.75 275.25 277.5 272.5 277.5Z" fill="white"/>
</g>
<path d="M270 229.227C292.518 229.227 310.773 247.481 310.773 270C310.773 292.519 292.518 310.773 270 310.773C247.481 310.773 229.226 292.518 229.226 270C229.226 247.482 247.481 229.227 270 229.227Z" stroke="url(#paint1_linear_1_3474)" stroke-width="1.54688" shape-rendering="crispEdges"/>
</g>
<defs>
<filter id="filter0_di_1_3474" x="0.452942" y="0.453125" width="539.094" height="539.094" filterUnits="userSpaceOnUse" color-interpolation-filters="sRGB">
<feFlood flood-opacity="0" result="BackgroundImageFix"/>
<feColorMatrix in="SourceAlpha" type="matrix" values="0 0 0 0 0 0 0 0 0 0 0 0 0 0 0 0 0 0 127 0" result="hardAlpha"/>
<feMorphology radius="40" operator="dilate" in="SourceAlpha" result="effect1_dropShadow_1_3474"/>
<feOffset/>
<feGaussianBlur stdDeviation="94"/>
<feComposite in2="hardAlpha" operator="out"/>
<feColorMatrix type="matrix" values="0 0 0 0 0.33148 0 0 0 0 0.280333 0 0 0 0 0.919667 0 0 0 0.5 0"/>
<feBlend mode="normal" in2="BackgroundImageFix" result="effect1_dropShadow_1_3474"/>
<feBlend mode="normal" in="SourceGraphic" in2="effect1_dropShadow_1_3474" result="shape"/>
<feColorMatrix in="SourceAlpha" type="matrix" values="0 0 0 0 0 0 0 0 0 0 0 0 0 0 0 0 0 0 127 0" result="hardAlpha"/>
<feMorphology radius="12.375" operator="erode" in="SourceAlpha" result="effect2_innerShadow_1_3474"/>
<feOffset/>
<feGaussianBlur stdDeviation="10.0547"/>
<feComposite in2="hardAlpha" operator="arithmetic" k2="-1" k3="1"/>
<feColorMatrix type="matrix" values="0 0 0 0 1 0 0 0 0 1 0 0 0 0 1 0 0 0 0.3 0"/>
<feBlend mode="normal" in2="shape" result="effect2_innerShadow_1_3474"/>
</filter>
<radialGradient id="paint0_radial_1_3474" cx="0" cy="0" r="1" gradientUnits="userSpaceOnUse" gradientTransform="translate(650.625 576.25) rotate(40.0904) scale(273.682 269.673)">
<stop/>
<stop offset="1" stop-opacity="0"/>
</radialGradient>
<linearGradient id="paint1_linear_1_3474" x1="230" y1="226.471" x2="310" y2="310" gradientUnits="userSpaceOnUse">
<stop stop-color="#EAE8FC"/>
<stop offset="1" stop-color="#D4D1FA" stop-opacity="0"/>
</linearGradient>
<clipPath id="clip0_1_3474">
<path d="M230 270C230 247.909 247.909 230 270 230C292.091 230 310 247.909 310 270C310 292.091 292.091 310 270 310C247.909 310 230 292.091 230 270Z" fill="white"/>
</clipPath>
<clipPath id="clip1_1_3474">
<rect width="178.75" height="150" fill="white" transform="matrix(-1 0 0 -1 358.75 345)"/>
</clipPath>
</defs>
</svg>
