<svg width="84" height="84" viewBox="0 0 84 84" fill="none" xmlns="http://www.w3.org/2000/svg">
<g filter="url(#filter0_i_1_3474)">
<g clip-path="url(#clip0_1_3474)">
<path d="M1.99982 42C1.99982 19.9086 19.9086 2 42 2C64.0914 2 82.0002 19.9086 82.0002 42C82.0002 64.0914 64.0914 82 42 82C19.9086 82 1.99982 64.0914 1.99982 42Z" fill="#5547EB"/>
<mask id="mask0_1_3474" style="mask-type:alpha" maskUnits="userSpaceOnUse" x="-206" y="-181" width="420" height="353">
<rect x="213.25" y="172" width="418.75" height="352.5" transform="rotate(180 213.25 172)" fill="url(#paint0_radial_1_3474)"/>
</mask>
<g mask="url(#mask0_1_3474)">
</g>
<g clip-path="url(#clip1_1_3474)">
<g opacity="0.7">
<path opacity="0.11" d="M68.6601 33.1333C68.3987 33.3031 68.3244 33.6529 68.494 33.9146C68.6636 34.1763 69.0131 34.2507 69.2745 34.0809C69.5359 33.9111 69.6103 33.5613 69.4406 33.2996C69.271 33.0379 68.9216 32.9635 68.6601 33.1333Z" fill="white"/>
<path d="M65.4348 31.5269C65.2388 31.6542 65.183 31.9165 65.3102 32.1127C65.4374 32.3089 65.6994 32.3647 65.8954 32.2374C66.0914 32.1101 66.1472 31.8478 66.02 31.6516C65.8928 31.4554 65.6308 31.3995 65.4348 31.5269Z" fill="white"/>
<path d="M60.8511 41.5708C60.6551 41.6982 60.5993 41.9604 60.7265 42.1566C60.8537 42.3528 61.1157 42.4087 61.3117 42.2813C61.5077 42.154 61.5635 41.8917 61.4363 41.6955C61.3091 41.4993 61.0471 41.4435 60.8511 41.5708Z" fill="white"/>
<path d="M81.2679 28.9824C81.0719 29.1098 81.0161 29.372 81.1433 29.5682C81.2705 29.7644 81.5325 29.8203 81.7285 29.693C81.9245 29.5656 81.9803 29.3033 81.8531 29.1071C81.7259 28.9109 81.4639 28.8551 81.2679 28.9824Z" fill="white"/>
<path d="M63.3846 23.4361C63.254 23.5209 63.2169 23.6957 63.3016 23.8264C63.3864 23.9571 63.5609 23.9943 63.6915 23.9095C63.8221 23.8246 63.8593 23.6499 63.7745 23.5192C63.6898 23.3884 63.5152 23.3512 63.3846 23.4361Z" fill="white"/>
<path d="M11.8102 56.9375C11.6796 57.0224 11.6425 57.1971 11.7272 57.3278C11.812 57.4586 11.9865 57.4958 12.1171 57.4109C12.2477 57.3261 12.2849 57.1514 12.2001 57.0206C12.1154 56.8899 11.9408 56.8527 11.8102 56.9375Z" fill="white"/>
<path opacity="0.11" d="M58.3274 14.6036C58.1968 14.6884 58.1597 14.8631 58.2444 14.9939C58.3292 15.1246 58.5037 15.1618 58.6343 15.077C58.7649 14.9921 58.8021 14.8174 58.7173 14.6866C58.6326 14.5559 58.458 14.5187 58.3274 14.6036Z" fill="white"/>
<path opacity="0.11" d="M14.4445 46.4785C14.314 46.5634 14.2768 46.7381 14.3615 46.8689C14.4463 46.9996 14.6209 47.0368 14.7515 46.952C14.882 46.8671 14.9192 46.6924 14.8345 46.5616C14.7497 46.4309 14.5751 46.3937 14.4445 46.4785Z" fill="white"/>
<path d="M56.7102 63.4453C56.5796 63.5302 56.5424 63.7049 56.6272 63.8357C56.7119 63.9664 56.8865 64.0036 57.0171 63.9187C57.1477 63.8339 57.1848 63.6592 57.1001 63.5284C57.0153 63.3977 56.8408 63.3605 56.7102 63.4453Z" fill="white"/>
<path opacity="0.11" d="M29.7923 76.8936C29.6617 76.9784 29.6245 77.1532 29.7093 77.2839C29.794 77.4146 29.9686 77.4518 30.0992 77.367C30.2298 77.2822 30.2669 77.1074 30.1822 76.9767C30.0974 76.846 29.9229 76.8088 29.7923 76.8936Z" fill="white"/>
<path opacity="0.3" d="M43.6664 36.5811C43.405 36.7509 43.3306 37.1007 43.5002 37.3623C43.6699 37.624 44.0193 37.6985 44.2807 37.5287C44.5421 37.3589 44.6165 37.0091 44.4469 36.7474C44.2772 36.4857 43.9278 36.4112 43.6664 36.5811Z" fill="white"/>
<path opacity="0.11" d="M34.3142 52.7529C34.0528 52.9228 33.9784 53.2725 34.148 53.5342C34.3177 53.7959 34.6671 53.8704 34.9285 53.7006C35.1899 53.5307 35.2643 53.1809 35.0947 52.9193C34.925 52.6576 34.5756 52.5831 34.3142 52.7529Z" fill="white"/>
<path d="M39.8036 60.9649C39.6076 61.0922 39.5518 61.3545 39.679 61.5507C39.8062 61.7469 40.0682 61.8027 40.2642 61.6754C40.4602 61.548 40.516 61.2858 40.3888 61.0896C40.2616 60.8934 39.9996 60.8375 39.8036 60.9649Z" fill="white"/>
<path d="M40.0065 25.4956C39.8105 25.623 39.7547 25.8852 39.8819 26.0814C40.0091 26.2776 40.2711 26.3335 40.4671 26.2061C40.6631 26.0788 40.7189 25.8165 40.5917 25.6203C40.4645 25.4241 40.2025 25.3683 40.0065 25.4956Z" fill="white"/>
<path d="M48.0867 48.8516C47.8907 48.9789 47.8349 49.2412 47.9621 49.4374C48.0893 49.6336 48.3513 49.6894 48.5473 49.5621C48.7433 49.4348 48.7991 49.1725 48.6719 48.9763C48.5447 48.7801 48.2827 48.7243 48.0867 48.8516Z" fill="white"/>
<path d="M77.89 4.58792C77.694 4.71524 77.6382 4.9775 77.7654 5.1737C77.8926 5.3699 78.1546 5.42575 78.3506 5.29842C78.5466 5.17109 78.6024 4.90881 78.4752 4.71261C78.348 4.51641 78.086 4.46059 77.89 4.58792Z" fill="white"/>
<path d="M11.6729 33.1319C11.4769 33.2592 11.4211 33.5214 11.5483 33.7176C11.6755 33.9138 11.9375 33.9697 12.1335 33.8424C12.3295 33.715 12.3853 33.4528 12.2581 33.2566C12.1309 33.0604 11.8689 33.0045 11.6729 33.1319Z" fill="white"/>
<path opacity="0.3" d="M20.1312 73.4077C19.8698 73.5775 19.7954 73.9273 19.9651 74.189C20.1347 74.4507 20.4841 74.5251 20.7456 74.3553C21.007 74.1855 21.0814 73.8357 20.9117 73.5741C20.7421 73.3124 20.3926 73.2379 20.1312 73.4077Z" fill="white"/>
<path d="M4.57108 76.1118C4.37508 76.2392 4.31931 76.5014 4.44651 76.6976C4.57371 76.8938 4.8357 76.9497 5.0317 76.8223C5.2277 76.695 5.28348 76.4327 5.15629 76.2365C5.02909 76.0403 4.76708 75.9845 4.57108 76.1118Z" fill="white"/>
<path opacity="0.11" d="M9.38736 32.3697C9.25677 32.4545 9.2196 32.6292 9.30435 32.76C9.3891 32.8907 9.56367 32.9279 9.69426 32.8431C9.82486 32.7582 9.86202 32.5835 9.77727 32.4527C9.69252 32.322 9.51796 32.2848 9.38736 32.3697Z" fill="white"/>
<path opacity="0.11" d="M16.0271 20.315C15.8965 20.3998 15.8593 20.5746 15.9441 20.7053C16.0288 20.836 16.2034 20.8732 16.334 20.7884C16.4646 20.7035 16.5017 20.5288 16.417 20.3981C16.3322 20.2673 16.1577 20.2301 16.0271 20.315Z" fill="white"/>
<path d="M11.2451 11.6416C11.0491 11.769 10.9933 12.0312 11.1205 12.2274C11.2477 12.4236 11.5097 12.4795 11.7057 12.3521C11.9017 12.2248 11.9575 11.9625 11.8303 11.7663C11.7031 11.5701 11.4411 11.5143 11.2451 11.6416Z" fill="white"/>
<path opacity="0.3" d="M4.4752 24.791C4.21379 24.9608 4.13941 25.3106 4.30906 25.5723C4.4787 25.834 4.82813 25.9085 5.08954 25.7386C5.35095 25.5688 5.42535 25.219 5.2557 24.9574C5.08606 24.6957 4.73661 24.6212 4.4752 24.791Z" fill="white"/>
</g>
</g>
<path d="M24.4998 49.5H29.4998C32.2498 49.5 34.4998 47.25 34.4998 44.5V39.5C34.4998 36.75 32.2498 34.5 29.4998 34.5H24.4998C21.7498 34.5 19.4998 36.75 19.4998 39.5V44.5C19.4998 47.25 21.7498 49.5 24.4998 49.5Z" fill="white"/>
<path d="M39.4988 34.5H44.4988C47.2488 34.5 49.4988 32.25 49.4988 29.5V24.5C49.4988 21.75 47.2488 19.5 44.4988 19.5H39.4988C36.7488 19.5 34.4988 21.75 34.4988 24.5V29.5C34.4988 32.25 36.7488 34.5 39.4988 34.5Z" fill="white"/>
<path d="M59.5002 49.5H54.5002C51.7502 49.5 49.5002 47.25 49.5002 44.5V39.5C49.5002 36.75 51.7502 34.5 54.5002 34.5H59.5002C62.2502 34.5 64.5002 36.75 64.5002 39.5V44.5C64.5002 47.25 62.2502 49.5 59.5002 49.5Z" fill="white"/>
<path d="M44.4988 49.5H39.4988C36.7488 49.5 34.4988 51.75 34.4988 54.5V59.5C34.4988 62.25 36.7488 64.5 39.4988 64.5H44.4988C47.2488 64.5 49.4988 62.25 49.4988 59.5V54.5C49.4988 51.75 47.2488 49.5 44.4988 49.5Z" fill="white"/>
<path d="M29.4998 34.5C32.2498 34.5 34.4998 32.25 34.4998 29.5C34.4998 32.25 36.7498 34.5 39.4998 34.5C36.7498 34.5 34.4998 36.75 34.4998 39.5C34.4998 36.75 32.2498 34.5 29.4998 34.5Z" fill="white"/>
<path d="M44.4998 34.5C47.2498 34.5 49.4998 32.25 49.4998 29.5C49.4998 32.25 51.7498 34.5 54.4998 34.5C51.7498 34.5 49.4998 36.75 49.4998 39.5C49.4998 36.75 47.2498 34.5 44.4998 34.5Z" fill="white"/>
<path d="M29.4998 49.5C32.2498 49.5 34.4998 47.25 34.4998 44.5C34.4998 47.25 36.7498 49.5 39.4998 49.5C36.7498 49.5 34.4998 51.75 34.4998 54.5C34.4998 51.75 32.2498 49.5 29.4998 49.5Z" fill="white"/>
<path d="M44.4998 49.5C47.2498 49.5 49.4998 47.25 49.4998 44.5C49.4998 47.25 51.7498 49.5 54.4998 49.5C51.7498 49.5 49.4998 51.75 49.4998 54.5C49.4998 51.75 47.2498 49.5 44.4998 49.5Z" fill="white"/>
</g>
<path d="M41.9998 1.22656C64.5184 1.22656 82.7733 19.4814 82.7733 42C82.7733 64.5186 64.5184 82.7734 41.9998 82.7734C19.4814 82.7733 1.22638 64.5185 1.22638 42C1.22638 19.4815 19.4814 1.22666 41.9998 1.22656Z" stroke="url(#paint1_linear_1_3474)" stroke-width="1.54688"/>
</g>
<defs>
<filter id="filter0_i_1_3474" x="0.452942" y="0.453125" width="83.0941" height="83.0938" filterUnits="userSpaceOnUse" color-interpolation-filters="sRGB">
<feFlood flood-opacity="0" result="BackgroundImageFix"/>
<feBlend mode="normal" in="SourceGraphic" in2="BackgroundImageFix" result="shape"/>
<feColorMatrix in="SourceAlpha" type="matrix" values="0 0 0 0 0 0 0 0 0 0 0 0 0 0 0 0 0 0 127 0" result="hardAlpha"/>
<feMorphology radius="12.375" operator="erode" in="SourceAlpha" result="effect1_innerShadow_1_3474"/>
<feOffset/>
<feGaussianBlur stdDeviation="10.0547"/>
<feComposite in2="hardAlpha" operator="arithmetic" k2="-1" k3="1"/>
<feColorMatrix type="matrix" values="0 0 0 0 1 0 0 0 0 1 0 0 0 0 1 0 0 0 0.3 0"/>
<feBlend mode="normal" in2="shape" result="effect1_innerShadow_1_3474"/>
</filter>
<radialGradient id="paint0_radial_1_3474" cx="0" cy="0" r="1" gradientUnits="userSpaceOnUse" gradientTransform="translate(422.625 348.25) rotate(40.0904) scale(273.682 269.673)">
<stop/>
<stop offset="1" stop-opacity="0"/>
</radialGradient>
<linearGradient id="paint1_linear_1_3474" x1="1.99982" y1="-1.52941" x2="81.9998" y2="82.0004" gradientUnits="userSpaceOnUse">
<stop stop-color="#EAE8FC"/>
<stop offset="1" stop-color="#D4D1FA" stop-opacity="0"/>
</linearGradient>
<clipPath id="clip0_1_3474">
<path d="M1.99982 42C1.99982 19.9086 19.9086 2 42 2C64.0914 2 82.0002 19.9086 82.0002 42C82.0002 64.0914 64.0914 82 42 82C19.9086 82 1.99982 64.0914 1.99982 42Z" fill="white"/>
</clipPath>
<clipPath id="clip1_1_3474">
<rect width="178.75" height="150" fill="white" transform="matrix(-1 0 0 -1 130.75 117)"/>
</clipPath>
</defs>
</svg>
